{"title":"[ShepardTDS] Queen's Blade 2 The Evil Eye Dual Audio Uncensored","uid":12921242,"size":2553539251,"categoryP":"video","categoryS":"tv_shows","magnet":"?xt=urn:btih:13296a77fef28dce5be2a35b9ed368ec29d83763&amp;dn=%5BShepardTDS%5D+Queen%27s+Blade+2+The+Evil+Eye+Dual+Audio+Uncensored+&amp;tr=udp%3A%2F%2Ftracker.leechers-paradise.org%3A6969&amp;tr=udp%3A%2F%2Fzer0day.ch%3A1337&amp;tr=udp%3A%2F%2Fopen.demonii.com%3A1337&amp;tr=udp%3A%2F%2Ftracker.coppersurfer.tk%3A6969&amp;tr=udp%3A%2F%2Fexodus.desync.com%3A6969","seeders":0,"leechers":1,"uploader":"ShepardTDS","files":19,"time":1449418731,"description":"http://extraimago.com/images/2015/12/06/L631595111378.jpg\r\n\r\nConstant Quality encoding.\r\nVariable Bit rates\r\nBlu-Ray Source\r\nAll 6 OVAs are Japanese audio with soft subs only\r\n \nhttp://extraimago.com/images/2015/12/06/sample1.jpg\r\n \nhttp://extraimago.com/images/2015/12/06/sample2.jpg\r\n\r\nGeneral\r\n\r\nFormat : Matroska\r\nFile size : 170 MiB-226 MiB\r\nDuration : 23mn 12s\r\nOverall bit rate : 1,022 Kbps-1,327 Kbps\r\nEncoded date : UTC 2015-11-25 01:12:19\r\nWriting application : mkvmerge v7.7.0 ('Six Voices') 32bit built on Feb 28 2015 23:23:00\r\nWriting library : libebml v1.3.1 + libmatroska v1.4.2\r\n\r\nVideo\r\nID : 1\r\nFormat : V_MPEGH/ISO/HEVC\r\nCodec ID : V_MPEGH/ISO/HEVC\r\nDuration : 23mn 12s\r\nBit rate : 618 Kbps-917 Kbps\r\nWidth : 1 280 pixels\r\nHeight : 720 pixels\r\nDisplay aspect ratio : 16:9\r\nFrame rate : 23.976 fps\r\nBits/(Pixel*Frame) : 0.028\r\nStream size : 103 MiB (60%)\r\n\r\nAudio #1\r\nID : 2\r\nFormat : AC-3\r\nFormat/Info : Audio Coding 3\r\nMode extension : CM (complete main)\r\nCodec ID : A_AC3\r\nDuration : 23mn 12s\r\nBit rate mode : Constant\r\nBit rate : 192 Kbps\r\nChannel(s) : 2 channels\r\nChannel positions : Front: L R\r\nSampling rate : 48.0 KHz\r\nBit depth : 16 bits\r\nCompression mode : Lossy\r\nStream size : 31.9 MiB (19%)\r\nLanguage : English\r\n\r\nAudio #2\r\nID : 3\r\nFormat : AC-3\r\nFormat/Info : Audio Coding 3\r\nMode extension : CM (complete main)\r\nCodec ID : A_AC3\r\nDuration : 23mn 12s\r\nBit rate mode : Constant\r\nBit rate : 192 Kbps\r\nChannel(s) : 2 channels\r\nChannel positions : Front: L R\r\nSampling rate : 48.0 KHz\r\nBit depth : 16 bits\r\nCompression mode : Lossy\r\nStream size : 31.9 MiB (19%)\r\nLanguage : Japanese\r\n\r\nText #1\r\nID : 4\r\nFormat : ASS\r\nCodec ID : S_TEXT/ASS\r\nCodec ID/Info : Advanced Sub Station Alpha\r\nCompression mode : Lossless\r\nTitle : Signs [SFW]\r\nLanguage : English\r\n\r\nText #2\r\nID : 5\r\nFormat : PGS\r\nMuxing mode : zlib\r\nCodec ID : S_HDMV/PGS\r\nCodec ID/Info : The same subtitle format used on BDs/HD-DVDs\r\nTitle : Signs [R1]\r\nLanguage : English\r\n\r\nText #3\r\nID : 6\r\nFormat : ASS\r\nCodec ID : S_TEXT/ASS\r\nCodec ID/Info : Advanced Sub Station Alpha\r\nCompression mode : Lossless\r\nTitle : English Subtitles [SFW]\r\nLanguage : English\r\n\r\nText #4\r\nID : 7\r\nFormat : PGS\r\nMuxing mode : zlib\r\nCodec ID : S_HDMV/PGS\r\nCodec ID/Info : The same subtitle format used on BDs/HD-DVDs\r\nTitle : English Subtitles [R1]\r\nLanguage : English\r\n\r\nMenu\r\n00:00:00.000 : en:Ambition! Successor to the Throne Part 1\r\n00:11:57.717 : en:Ambition! Successor to the Throne Part 2\r\n00:21:21.280 : en:Ending\r\n00:22:51.370 : en:Epilogue","torrent":{"xt":"urn:btih:13296a77fef28dce5be2a35b9ed368ec29d83763","amp;dn":"%5BShepardTDS%5D+Queen%27s+Blade+2+The+Evil+Eye+Dual+Audio+Uncensored+","amp;tr":["udp%3A%2F%2Ftracker.leechers-paradise.org%3A6969","udp%3A%2F%2Fzer0day.ch%3A1337","udp%3A%2F%2Fopen.demonii.com%3A1337","udp%3A%2F%2Ftracker.coppersurfer.tk%3A6969","udp%3A%2F%2Fexodus.desync.com%3A6969"],"infoHash":"13296a77fef28dce5be2a35b9ed368ec29d83763","infoHashBuffer":{"type":"Buffer","data":[19,41,106,119,254,242,141,206,91,226,163,91,158,211,104,236,41,216,55,99]},"announce":[],"urlList":[]}}